<svg width="797" height="260" viewBox="0 0 797 260" fill="none" xmlns="http://www.w3.org/2000/svg">
<path d="M61.1535 0.445557V22.6888H59.3167C57.9352 16.8835 55.3606 12.4348 51.5928 9.34287C47.825 6.2509 43.5549 4.70491 38.7824 4.70491C34.7948 4.70491 31.1369 5.85651 27.8087 8.15972C24.4805 10.4629 22.0472 13.476 20.5087 17.199C18.5306 21.9632 17.5415 27.2637 17.5415 33.1006C17.5415 38.8428 18.2637 44.0803 19.708 48.8129C21.1523 53.5139 23.413 57.0792 26.49 59.5086C29.567 61.9064 33.5546 63.1054 38.4527 63.1054C42.4716 63.1054 46.1452 62.2219 49.4734 60.4551C52.833 58.6883 56.3653 55.6436 60.0703 51.3212V56.8583C56.4909 60.6128 52.7545 63.342 48.8612 65.0457C44.9992 66.7179 40.4779 67.554 35.2972 67.554C28.4838 67.554 22.4239 66.1816 17.1177 63.4366C11.8428 60.6917 7.76102 56.7479 4.87239 51.6051C2.01516 46.4623 0.586548 40.9883 0.586548 35.1829C0.586548 29.0621 2.17215 23.2568 5.34336 17.7669C8.54597 12.2771 12.8475 8.01774 18.248 4.98887C23.6799 1.95999 29.4414 0.445557 35.5327 0.445557C40.0226 0.445557 44.7637 1.42363 49.756 3.37978C52.6446 4.5156 54.4814 5.08352 55.2664 5.08352C56.2711 5.08352 57.1346 4.72068 57.8567 3.99502C58.6103 3.2378 59.097 2.05465 59.3167 0.445557H61.1535Z" fill="black"/>
<path d="M77.3079 66.0869V64.3358C79.1918 64.3358 80.4791 63.8468 81.1698 62.8687C81.892 61.8907 82.2531 59.9503 82.2531 57.0476V24.8185H77.873C74.796 24.8185 72.6609 25.3707 71.4678 26.4749C70.2747 27.5792 69.3327 29.8824 68.642 33.3845H66.8994V21.837H110.794V33.3845H109.051C108.486 30.2295 107.654 28.0209 106.555 26.7589C105.456 25.4653 103.243 24.8185 99.9145 24.8185H95.4403V57.0476C95.4403 60.0449 95.7857 62.0011 96.4764 62.9161C97.1986 63.831 98.5016 64.3043 100.385 64.3358V66.0869H77.3079Z" fill="black"/>
<path d="M141.313 59.5559C135.944 64.3201 131.124 66.7021 126.854 66.7021C124.342 66.7021 122.254 65.8818 120.59 64.2412C118.926 62.569 118.094 60.4866 118.094 57.9941C118.094 54.6182 119.538 51.5893 122.427 48.9075C125.316 46.1942 131.611 42.5974 141.313 38.1172V33.6685C141.313 30.3241 141.125 28.226 140.748 27.3741C140.402 26.4907 139.727 25.7335 138.723 25.1025C137.718 24.4399 136.588 24.1086 135.332 24.1086C133.291 24.1086 131.611 24.5661 130.292 25.4811C129.476 26.049 129.068 26.7116 129.068 27.4688C129.068 28.1313 129.507 28.9517 130.386 29.9297C131.58 31.2864 132.176 32.5958 132.176 33.8578C132.176 35.4038 131.595 36.7289 130.434 37.8332C129.303 38.9059 127.812 39.4423 125.959 39.4423C123.981 39.4423 122.317 38.8428 120.967 37.6439C119.648 36.445 118.989 35.041 118.989 33.4319C118.989 31.1602 119.884 28.999 121.673 26.9482C123.463 24.8658 125.959 23.2725 129.162 22.1683C132.364 21.064 135.693 20.5118 139.146 20.5118C143.322 20.5118 146.619 21.411 149.037 23.2094C151.486 24.9763 153.072 26.9009 153.794 28.9832C154.233 30.3083 154.453 33.353 154.453 38.1172V55.2965C154.453 57.3158 154.532 58.5936 154.689 59.13C154.846 59.6348 155.081 60.0134 155.395 60.2658C155.709 60.5182 156.07 60.6444 156.478 60.6444C157.295 60.6444 158.127 60.0607 158.974 58.8933L160.387 60.0292C158.817 62.3639 157.185 64.0677 155.489 65.1404C153.825 66.1816 151.926 66.7021 149.79 66.7021C147.279 66.7021 145.316 66.1185 143.903 64.9511C142.49 63.7521 141.627 61.9538 141.313 59.5559ZM141.313 56.1011V41.288C137.514 43.5281 134.688 45.926 132.835 48.4816C131.611 50.1853 130.999 51.9048 130.999 53.6401C130.999 55.0915 131.517 56.3693 132.553 57.4735C133.338 58.3254 134.437 58.7514 135.85 58.7514C137.42 58.7514 139.241 57.8679 141.313 56.1011Z" fill="black"/>
<path d="M165.285 66.0869V64.3358C167.107 64.3358 168.378 63.8783 169.1 62.9634C169.854 62.0169 170.231 60.2342 170.231 57.6155V30.4503C170.231 27.6739 169.87 25.8439 169.147 24.9605C168.425 24.0455 167.138 23.588 165.285 23.588V21.837H187.704V23.588C186.134 23.6511 185.019 24.0613 184.36 24.8185C183.732 25.5757 183.418 27.2952 183.418 29.9771V41.6666H196.04V29.9771C196.04 27.7685 195.804 26.1594 195.333 25.1498C194.862 24.1086 193.685 23.588 191.801 23.588V21.837H214.172V23.588C212.351 23.588 211.064 24.0455 210.31 24.9605C209.588 25.8439 209.227 27.3426 209.227 29.4565V57.6155C209.227 60.392 209.588 62.1904 210.31 63.0107C211.033 63.831 212.32 64.2727 214.172 64.3358V66.0869H191.801V64.3358C193.371 64.3043 194.47 63.9415 195.098 63.2473C195.726 62.5217 196.04 60.7548 196.04 57.9468V44.6482H183.418V57.6155C183.418 60.4235 183.732 62.2535 184.36 63.1054C185.019 63.9257 186.134 64.3358 187.704 64.3358V66.0869H165.285Z" fill="black"/>
<path d="M221.19 66.0869V64.3358C223.011 64.0834 224.235 63.484 224.863 62.5374C225.523 61.5594 225.852 59.7768 225.852 57.1896V30.4503C225.852 28.0525 225.507 26.3803 224.816 25.4338C224.157 24.4872 222.948 23.872 221.19 23.588V21.837H243.702V23.588C241.818 23.872 240.562 24.5346 239.934 25.5757C239.338 26.5854 239.04 28.4311 239.04 31.1129V41.6666H242.431C250.092 41.6666 255.869 42.7709 259.762 44.9794C263.656 47.1565 265.602 50.1853 265.602 54.0661C265.602 57.726 263.876 60.6444 260.422 62.8214C256.968 64.9984 251.85 66.0869 245.068 66.0869H221.19ZM239.04 44.6482V58.4201C239.04 60.5655 239.385 61.8907 240.076 62.3955C240.798 62.9003 241.661 63.1527 242.666 63.1527C245.115 63.1527 247.235 62.3166 249.024 60.6444C250.845 58.9407 251.756 56.6532 251.756 53.7821C251.756 47.6928 247.517 44.6482 239.04 44.6482Z" fill="black"/>
<path d="M313.029 61.5909V78.0604C313.029 80.3321 313.202 81.8781 313.547 82.6984C313.924 83.5187 314.489 84.1182 315.243 84.4968C315.996 84.8754 317.472 85.0647 319.67 85.0647V86.8158H294.567V85.0647C296.514 85.0016 297.958 84.4494 298.9 83.4083C299.528 82.6826 299.842 80.8053 299.842 77.7765V31.0656C299.842 27.942 299.481 25.9543 298.759 25.1025C298.037 24.2191 296.639 23.7142 294.567 23.588V21.837H313.029V27.6581C314.568 25.3864 316.138 23.7458 317.739 22.7362C320.031 21.2533 322.527 20.5118 325.227 20.5118C328.461 20.5118 331.397 21.5372 334.035 23.588C336.704 25.6388 338.729 28.4784 340.11 32.1067C341.492 35.7035 342.182 39.5843 342.182 43.749C342.182 48.2292 341.46 52.3308 340.016 56.0538C338.603 59.7452 336.531 62.569 333.799 64.5251C331.099 66.4497 328.085 67.412 324.757 67.412C322.339 67.412 320.078 66.8757 317.975 65.8029C316.405 64.9826 314.756 63.5786 313.029 61.5909ZM313.029 56.811C315.73 60.6602 318.618 62.5848 321.695 62.5848C323.391 62.5848 324.788 61.6856 325.887 59.8872C327.52 57.2369 328.336 52.1888 328.336 44.7428C328.336 37.1075 327.441 31.8859 325.651 29.0779C324.458 27.2164 322.857 26.2856 320.847 26.2856C317.676 26.2856 315.07 28.5888 313.029 33.1952V56.811Z" fill="black"/>
<path d="M386.972 42.3765H362.811C363.094 48.245 364.648 52.8829 367.474 56.2904C369.64 58.9091 372.246 60.2185 375.292 60.2185C377.176 60.2185 378.887 59.6979 380.425 58.6567C381.964 57.584 383.612 55.6752 385.371 52.9302L386.972 53.9714C384.586 58.8618 381.948 62.3324 379.06 64.3832C376.171 66.4024 372.827 67.412 369.028 67.412C362.497 67.412 357.552 64.888 354.192 59.8399C351.492 55.7698 350.142 50.7217 350.142 44.6955C350.142 37.3126 352.12 31.4442 356.076 27.0902C360.064 22.7046 364.726 20.5118 370.064 20.5118C374.523 20.5118 378.385 22.3576 381.65 26.049C384.947 29.7089 386.721 35.1514 386.972 42.3765ZM375.386 39.2057C375.386 34.126 375.103 30.6396 374.538 28.7466C374.004 26.8535 373.157 25.418 371.995 24.4399C371.336 23.872 370.456 23.588 369.358 23.588C367.725 23.588 366.39 24.3926 365.354 26.0017C363.502 28.8097 362.576 32.6589 362.576 37.5492V39.2057H375.386Z" fill="black"/>
<path d="M433.316 21.837V23.588C431.243 23.588 429.909 24.1244 429.312 25.1971C428.747 26.2698 428.465 27.6896 428.465 29.4565V58.0888C428.465 60.6444 428.841 62.3166 429.595 63.1054C430.38 63.8626 431.62 64.2727 433.316 64.3358V77.7291H431.573C430.851 69.9676 425.968 66.0869 416.926 66.0869H404.162C395.434 66.0869 390.614 69.9676 389.704 77.7291H387.961V64.3358C391.886 64.0203 394.947 60.4551 397.145 53.6401C399.374 46.8252 400.489 39.5527 400.489 31.8228C400.489 29.488 400.316 27.737 399.971 26.5696C399.625 25.3707 399.123 24.5819 398.464 24.2033C397.836 23.8247 396.674 23.6196 394.978 23.588V21.837H433.316ZM415.324 24.8185H403.691V31.7755C403.691 45.3738 401.211 55.8329 396.25 63.1527H410.756C413.802 63.1527 415.324 61.2754 415.324 57.5209V24.8185Z" fill="black"/>
<path d="M464.306 59.5559C458.936 64.3201 454.117 66.7021 449.847 66.7021C447.335 66.7021 445.247 65.8818 443.583 64.2412C441.919 62.569 441.087 60.4866 441.087 57.9941C441.087 54.6182 442.531 51.5893 445.42 48.9075C448.308 46.1942 454.603 42.5974 464.306 38.1172V33.6685C464.306 30.3241 464.117 28.226 463.74 27.3741C463.395 26.4907 462.72 25.7335 461.715 25.1025C460.71 24.4399 459.58 24.1086 458.324 24.1086C456.283 24.1086 454.603 24.5661 453.285 25.4811C452.468 26.049 452.06 26.7116 452.06 27.4688C452.06 28.1313 452.5 28.9517 453.379 29.9297C454.572 31.2864 455.169 32.5958 455.169 33.8578C455.169 35.4038 454.588 36.7289 453.426 37.8332C452.296 38.9059 450.804 39.4423 448.952 39.4423C446.974 39.4423 445.31 38.8428 443.96 37.6439C442.641 36.445 441.981 35.041 441.981 33.4319C441.981 31.1602 442.876 28.999 444.666 26.9482C446.456 24.8658 448.952 23.2725 452.154 22.1683C455.357 21.064 458.685 20.5118 462.139 20.5118C466.315 20.5118 469.612 21.411 472.029 23.2094C474.478 24.9763 476.064 26.9009 476.786 28.9832C477.226 30.3083 477.446 33.353 477.446 38.1172V55.2965C477.446 57.3158 477.524 58.5936 477.681 59.13C477.838 59.6348 478.074 60.0134 478.388 60.2658C478.702 60.5182 479.063 60.6444 479.471 60.6444C480.287 60.6444 481.119 60.0607 481.967 58.8933L483.38 60.0292C481.81 62.3639 480.177 64.0677 478.482 65.1404C476.818 66.1816 474.918 66.7021 472.783 66.7021C470.271 66.7021 468.309 66.1185 466.896 64.9511C465.483 63.7521 464.619 61.9538 464.306 59.5559ZM464.306 56.1011V41.288C460.506 43.5281 457.68 45.926 455.828 48.4816C454.603 50.1853 453.991 51.9048 453.991 53.6401C453.991 55.0915 454.509 56.3693 455.545 57.4735C456.33 58.3254 457.429 58.7514 458.842 58.7514C460.412 58.7514 462.233 57.8679 464.306 56.1011Z" fill="black"/>
<path d="M488.325 21.837H510.743V23.588C509.048 23.6511 507.902 24.1244 507.305 25.0078C506.74 25.8912 506.457 27.7685 506.457 30.6396V41.5246C509.974 41.5246 512.376 40.9567 513.663 39.8209C514.982 38.6535 516.238 36.445 517.431 33.1952C519.095 28.6204 520.775 25.4653 522.471 23.73C524.197 21.9632 526.537 21.0798 529.488 21.0798C531.968 21.0798 534.135 21.7896 535.987 23.2094C537.84 24.5977 538.766 26.4434 538.766 28.7466C538.766 30.5134 538.217 32.0279 537.118 33.2899C536.05 34.5204 534.653 35.1356 532.926 35.1356C529.378 35.1356 527.573 33.3057 527.51 29.6458C527.479 27.0902 526.929 25.8124 525.862 25.8124C524.26 25.8124 522.643 27.9736 521.01 32.296C519.692 35.8297 518.781 38.0541 518.279 38.969C517.776 39.884 516.913 40.8936 515.689 41.9979C518.86 42.6289 521.152 43.4808 522.565 44.5535C524.009 45.6262 525.893 48.0714 528.216 51.8891L532.408 58.6567C534.606 62.2535 536.914 64.1465 539.331 64.3358V66.0869H522.376L509.283 44.5535H506.457V56.8583C506.457 59.6348 506.787 61.5594 507.447 62.6321C508.106 63.6733 509.205 64.2412 510.743 64.3358V66.0869H488.325V64.3358C489.801 64.3043 490.994 63.9099 491.904 63.1527C492.815 62.3955 493.27 60.4709 493.27 57.3789V31.2549C493.27 28.3207 492.909 26.3172 492.187 25.2445C491.496 24.1402 490.209 23.588 488.325 23.588V21.837Z" fill="black"/>
<path d="M552.707 66.0869V64.3358C554.591 64.3358 555.878 63.8468 556.569 62.8687C557.291 61.8907 557.652 59.9503 557.652 57.0476V24.8185H553.272C550.195 24.8185 548.06 25.3707 546.867 26.4749C545.674 27.5792 544.732 29.8824 544.041 33.3845H542.298V21.837H586.193V33.3845H584.45C583.885 30.2295 583.053 28.0209 581.954 26.7589C580.855 25.4653 578.642 24.8185 575.314 24.8185H570.839V57.0476C570.839 60.0449 571.185 62.0011 571.875 62.9161C572.598 63.831 573.901 64.3043 575.785 64.3358V66.0869H552.707Z" fill="black"/>
<path d="M610.636 20.5118C614.467 20.5118 618.031 21.5057 621.328 23.4934C624.624 25.4811 627.12 28.3049 628.816 31.9648C630.543 35.6246 631.406 39.6316 631.406 43.9856C631.406 50.2642 629.821 55.5174 626.65 59.7452C622.819 64.8564 617.528 67.412 610.778 67.412C604.153 67.412 599.051 65.0773 595.471 60.4078C591.892 55.7383 590.102 50.3273 590.102 44.1749C590.102 37.8332 591.923 32.3118 595.565 27.6108C599.239 22.8781 604.263 20.5118 610.636 20.5118ZM610.825 23.872C609.224 23.872 607.842 24.4872 606.68 25.7177C605.55 26.9166 604.796 29.3145 604.42 32.9113C604.074 36.4765 603.902 41.4458 603.902 47.819C603.902 51.1949 604.121 54.35 604.561 57.2842C604.906 59.5243 605.644 61.2281 606.775 62.3955C607.905 63.5628 609.192 64.1465 610.636 64.1465C612.049 64.1465 613.227 63.7521 614.169 62.9634C615.393 61.8907 616.21 60.392 616.618 58.4674C617.246 55.4701 617.56 49.4123 617.56 40.2942C617.56 34.9305 617.261 31.2549 616.665 29.2672C616.068 27.2479 615.189 25.7808 614.027 24.8658C613.211 24.2033 612.144 23.872 610.825 23.872Z" fill="black"/>
<path d="M655.143 61.5909V78.0604C655.143 80.3321 655.316 81.8781 655.661 82.6984C656.038 83.5187 656.603 84.1182 657.357 84.4968C658.11 84.8754 659.586 85.0647 661.784 85.0647V86.8158H636.681V85.0647C638.628 85.0016 640.072 84.4494 641.014 83.4083C641.642 82.6826 641.956 80.8053 641.956 77.7765V31.0656C641.956 27.942 641.595 25.9543 640.873 25.1025C640.151 24.2191 638.753 23.7142 636.681 23.588V21.837H655.143V27.6581C656.682 25.3864 658.252 23.7458 659.853 22.7362C662.145 21.2533 664.641 20.5118 667.341 20.5118C670.576 20.5118 673.511 21.5372 676.149 23.588C678.818 25.6388 680.843 28.4784 682.224 32.1067C683.606 35.7035 684.297 39.5843 684.297 43.749C684.297 48.2292 683.574 52.3308 682.13 56.0538C680.717 59.7452 678.645 62.569 675.913 64.5251C673.213 66.4497 670.199 67.412 666.871 67.412C664.453 67.412 662.192 66.8757 660.089 65.8029C658.519 64.9826 656.87 63.5786 655.143 61.5909ZM655.143 56.811C657.844 60.6602 660.732 62.5848 663.809 62.5848C665.505 62.5848 666.902 61.6856 668.001 59.8872C669.634 57.2369 670.45 52.1888 670.45 44.7428C670.45 37.1075 669.555 31.8859 667.765 29.0779C666.572 27.2164 664.971 26.2856 662.961 26.2856C659.79 26.2856 657.184 28.5888 655.143 33.1952V56.811Z" fill="black"/>
<path d="M712.555 20.5118C716.385 20.5118 719.949 21.5057 723.246 23.4934C726.543 25.4811 729.039 28.3049 730.734 31.9648C732.461 35.6246 733.325 39.6316 733.325 43.9856C733.325 50.2642 731.739 55.5174 728.568 59.7452C724.737 64.8564 719.447 67.412 712.696 67.412C706.071 67.412 700.969 65.0773 697.39 60.4078C693.81 55.7383 692.02 50.3273 692.02 44.1749C692.02 37.8332 693.841 32.3118 697.484 27.6108C701.157 22.8781 706.181 20.5118 712.555 20.5118ZM712.743 23.872C711.142 23.872 709.76 24.4872 708.599 25.7177C707.468 26.9166 706.715 29.3145 706.338 32.9113C705.993 36.4765 705.82 41.4458 705.82 47.819C705.82 51.1949 706.04 54.35 706.479 57.2842C706.825 59.5243 707.562 61.2281 708.693 62.3955C709.823 63.5628 711.11 64.1465 712.555 64.1465C713.968 64.1465 715.145 63.7521 716.087 62.9634C717.312 61.8907 718.128 60.392 718.536 58.4674C719.164 55.4701 719.478 49.4123 719.478 40.2942C719.478 34.9305 719.18 31.2549 718.583 29.2672C717.987 27.2479 717.108 25.7808 715.946 24.8658C715.129 24.2033 714.062 23.872 712.743 23.872Z" fill="black"/>
<path d="M738.317 21.837H756.732L767.894 49.2861L779.056 21.837H797V23.588C795.273 23.6827 794.049 24.2033 793.326 25.1498C792.604 26.0648 792.243 27.7212 792.243 30.119V57.6155C792.243 60.108 792.573 61.8276 793.232 62.7741C793.923 63.7206 795.179 64.2412 797 64.3358V66.0869H773.781V64.3358C775.728 64.3043 777.094 63.7837 777.879 62.7741C778.664 61.7645 779.056 60.0449 779.056 57.6155V29.2672L763.702 66.0869H761.3L746.418 29.7878V58.3727C746.418 60.4235 746.763 61.9064 747.454 62.8214C748.145 63.7364 749.495 64.2412 751.504 64.3358V66.0869H738.317V64.3358C740.075 64.2727 741.315 63.7837 742.038 62.8687C742.791 61.9222 743.168 60.3131 743.168 58.0415V29.7878C743.168 27.6108 742.807 26.0648 742.085 25.1498C741.363 24.2033 740.107 23.6827 738.317 23.588V21.837Z" fill="black"/>
<path d="M35.7925 151.087V207.332C35.7925 212.763 36.3702 216.172 37.5258 217.559C39.3746 219.697 42.7834 220.679 47.7522 220.505V223.625H0V220.505C3.63991 220.448 6.21096 220.043 7.71315 219.292C9.27311 218.483 10.342 217.386 10.9197 215.999C11.4975 214.612 11.7864 211.723 11.7864 207.332V151.087H0V142.594H11.7864V136.614L11.6997 132.541C11.6997 124.221 14.733 117.288 20.7995 111.741C26.9238 106.195 35.1858 103.422 45.5856 103.422C52.6921 103.422 57.9497 104.75 61.3585 107.408C64.8251 110.066 66.5584 113.013 66.5584 116.248C66.5584 118.848 65.4895 121.101 63.3518 123.008C61.2141 124.914 58.383 125.868 54.8587 125.868C51.8543 125.868 49.4566 125.088 47.6655 123.528C45.9322 121.968 45.0656 120.235 45.0656 118.328C45.0656 117.808 45.2389 116.739 45.5856 115.121C45.8167 114.139 45.9322 113.215 45.9322 112.348C45.9322 111.135 45.5856 110.239 44.8922 109.661C43.9678 108.795 42.8412 108.362 41.5123 108.362C39.8368 108.362 38.4213 109.055 37.2658 110.441C36.168 111.828 35.6191 114.052 35.6191 117.115L35.7925 132.281V142.594H47.7522V151.087H35.7925Z" fill="black"/>
<path d="M104.084 211.666C94.2044 220.39 85.3357 224.752 77.4781 224.752C72.856 224.752 69.0139 223.25 65.9517 220.245C62.8896 217.183 61.3585 213.37 61.3585 208.806C61.3585 202.624 64.0162 197.077 69.3316 192.166C74.6471 187.197 86.2312 180.611 104.084 172.407V164.26C104.084 158.136 103.737 154.294 103.044 152.734C102.409 151.116 101.166 149.729 99.3176 148.574C97.4687 147.361 95.3888 146.754 93.0777 146.754C89.3223 146.754 86.2312 147.592 83.8046 149.267C82.3024 150.307 81.5513 151.52 81.5513 152.907C81.5513 154.12 82.3602 155.623 83.978 157.414C86.1735 159.898 87.2712 162.296 87.2712 164.607C87.2712 167.438 86.2023 169.864 84.0646 171.887C81.9847 173.851 79.2403 174.833 75.8315 174.833C72.1916 174.833 69.1294 173.735 66.645 171.54C64.2184 169.344 63.0051 166.773 63.0051 163.827C63.0051 159.667 64.6518 155.709 67.945 151.954C71.2383 148.141 75.8315 145.223 81.7247 143.201C87.6179 141.178 93.7422 140.167 100.098 140.167C107.782 140.167 113.848 141.814 118.297 145.107C122.804 148.343 125.721 151.867 127.05 155.68C127.859 158.107 128.264 163.682 128.264 172.407V203.866C128.264 207.564 128.408 209.903 128.697 210.886C128.986 211.81 129.419 212.503 129.997 212.966C130.575 213.428 131.239 213.659 131.99 213.659C133.492 213.659 135.023 212.59 136.583 210.452L139.183 212.532C136.294 216.808 133.29 219.928 130.17 221.892C127.108 223.799 123.613 224.752 119.684 224.752C115.062 224.752 111.451 223.683 108.851 221.545C106.251 219.35 104.662 216.057 104.084 211.666ZM104.084 205.339V178.213C97.0932 182.315 91.8933 186.706 88.4845 191.386C86.2312 194.506 85.1046 197.655 85.1046 200.833C85.1046 203.49 86.0579 205.83 87.9645 207.852C89.4089 209.412 91.4311 210.192 94.031 210.192C96.9199 210.192 100.271 208.575 104.084 205.339Z" fill="black"/>
<path d="M181.042 106.108V183.413L199.848 164.953C203.719 161.198 206.117 158.483 207.042 156.807C208.024 155.131 208.515 153.514 208.515 151.954C208.515 150.394 207.879 149.094 206.608 148.054C205.337 147.014 202.853 146.263 199.155 145.801V142.594H235.468V145.801C232.001 145.974 228.968 146.812 226.368 148.314C223.768 149.758 218.684 154.178 211.115 161.574L202.275 170.24L221.341 198.146C229.026 209.47 233.59 215.826 235.034 217.212C236.999 219.177 239.483 220.274 242.487 220.505V223.625H200.628V220.505C202.477 220.505 203.806 220.159 204.615 219.465C205.482 218.772 205.915 218.021 205.915 217.212C205.915 215.883 204.702 213.428 202.275 209.846L186.242 186.36L181.042 191.473V206.032C181.042 212.215 181.62 216.086 182.776 217.646C183.931 219.148 186.3 220.101 189.882 220.505V223.625H148.023V220.505C151.432 220.159 153.858 219.061 155.303 217.212C156.285 215.941 156.776 212.215 156.776 206.032V123.701C156.776 117.577 156.198 113.764 155.043 112.261C153.945 110.759 151.605 109.777 148.023 109.315V106.108H181.042Z" fill="black"/>
<path d="M315.546 180.206H271.087C271.607 190.953 274.467 199.446 279.667 205.686C283.653 210.481 288.449 212.879 294.053 212.879C297.519 212.879 300.668 211.926 303.499 210.019C306.33 208.055 309.364 204.559 312.599 199.533L315.546 201.439C311.155 210.395 306.301 216.75 300.986 220.505C295.671 224.203 289.517 226.052 282.526 226.052C270.509 226.052 261.409 221.43 255.227 212.186C250.258 204.732 247.774 195.488 247.774 184.453C247.774 170.933 251.414 160.187 258.694 152.214C266.031 144.183 274.611 140.167 284.433 140.167C292.637 140.167 299.744 143.547 305.753 150.307C311.819 157.009 315.083 166.976 315.546 180.206ZM294.226 174.4C294.226 165.098 293.706 158.714 292.666 155.247C291.684 151.78 290.124 149.152 287.986 147.361C286.773 146.321 285.155 145.801 283.133 145.801C280.129 145.801 277.673 147.274 275.767 150.22C272.358 155.363 270.653 162.411 270.653 171.367V174.4H294.226Z" fill="black"/>
<path d="M366.331 259.158V255.171C372.34 251.185 376.76 247.314 379.591 243.558C383.462 238.358 386.524 231.714 388.777 223.625C391.55 213.457 392.937 199.302 392.937 181.16C392.937 164.058 391.666 150.798 389.124 141.381C386.639 131.905 383.231 124.25 378.897 118.415C375.893 114.37 371.704 110.817 366.331 107.755V103.422C380.255 108.102 392.042 117.664 401.69 132.108C411.397 146.494 416.25 163.047 416.25 181.766C416.25 200.197 411.397 216.519 401.69 230.732C392.042 245.003 380.255 254.478 366.331 259.158Z" fill="black"/>
<path d="M524.667 103.422V107.408C518.659 111.337 514.239 115.179 511.408 118.935C507.479 124.134 504.417 130.808 502.221 138.954C499.448 149.065 498.061 163.191 498.061 181.333C498.061 198.435 499.303 211.723 501.788 221.199C504.33 230.674 507.768 238.329 512.101 244.165C515.105 248.209 519.294 251.762 524.667 254.825V259.158C510.743 254.478 498.928 244.916 489.221 230.472C479.573 216.086 474.748 199.533 474.748 180.813C474.748 162.325 479.573 145.974 489.221 131.761C498.87 117.49 510.685 108.044 524.667 103.422Z" fill="black"/>
<path d="M601.365 180.206H556.906C557.426 190.953 560.286 199.446 565.486 205.686C569.473 210.481 574.268 212.879 579.873 212.879C583.339 212.879 586.488 211.926 589.319 210.019C592.15 208.055 595.183 204.559 598.419 199.533L601.365 201.439C596.974 210.395 592.121 216.75 586.806 220.505C581.49 224.203 575.337 226.052 568.346 226.052C556.329 226.052 547.229 221.43 541.047 212.186C536.078 204.732 533.594 195.488 533.594 184.453C533.594 170.933 537.234 160.187 544.513 152.214C551.851 144.183 560.431 140.167 570.253 140.167C578.457 140.167 585.564 143.547 591.572 150.307C597.639 157.009 600.903 166.976 601.365 180.206ZM580.046 174.4C580.046 165.098 579.526 158.714 578.486 155.247C577.504 151.78 575.944 149.152 573.806 147.361C572.593 146.321 570.975 145.801 568.953 145.801C565.948 145.801 563.493 147.274 561.586 150.22C558.178 155.363 556.473 162.411 556.473 171.367V174.4H580.046Z" fill="black"/>
<path d="M691.93 226.052L669.744 166.6L647.991 226.052H643.484L621.905 167.293C618.669 158.338 615.925 152.503 613.672 149.787C612.227 147.938 610.032 146.609 607.085 145.801V142.594H647.991V145.801C645.218 145.801 643.311 146.205 642.271 147.014C641.231 147.823 640.711 148.747 640.711 149.787C640.711 150.769 641.635 153.716 643.484 158.627L655.357 190.26L666.797 158.627L665.93 156.547C664.197 152.214 662.666 149.469 661.337 148.314C660.066 147.101 658.073 146.263 655.357 145.801V142.594H696.87V145.801C693.634 145.974 691.583 146.436 690.716 147.187C689.85 147.881 689.417 148.892 689.417 150.22C689.417 151.492 690.254 154.294 691.93 158.627L703.37 190.26L713.769 161.14C715.271 156.98 716.023 154.149 716.023 152.647C716.023 150.394 715.474 148.747 714.376 147.707C713.278 146.667 711.14 146.032 707.963 145.801V142.594H731.969V145.801C729.311 146.147 727.202 147.101 725.642 148.661C724.082 150.163 722.06 154.496 719.576 161.66L696.87 226.052H691.93Z" fill="black"/>
<path d="M791.074 140.341L792.374 167.987H789.427C785.903 159.782 782.234 154.178 778.421 151.174C774.666 148.169 770.91 146.667 767.155 146.667C764.786 146.667 762.764 147.476 761.088 149.094C759.413 150.654 758.575 152.474 758.575 154.554C758.575 156.114 759.153 157.616 760.308 159.06C762.157 161.429 767.328 165.502 775.821 171.28C784.314 177 789.89 181.882 792.547 185.926C795.263 189.913 796.621 194.391 796.621 199.359C796.621 203.866 795.494 208.286 793.241 212.619C790.987 216.952 787.81 220.274 783.708 222.585C779.605 224.896 775.07 226.052 770.101 226.052C766.23 226.052 761.059 224.839 754.588 222.412C752.855 221.777 751.671 221.459 751.035 221.459C749.128 221.459 747.54 222.903 746.268 225.792H743.409L742.022 196.673H744.969C747.568 204.299 751.122 210.019 755.628 213.832C760.193 217.646 764.497 219.552 768.541 219.552C771.315 219.552 773.568 218.714 775.301 217.039C777.092 215.306 777.988 213.226 777.988 210.799C777.988 208.026 777.121 205.628 775.388 203.606C773.654 201.584 769.784 198.522 763.775 194.419C754.935 188.295 749.215 183.615 746.615 180.38C742.802 175.642 740.895 170.413 740.895 164.693C740.895 158.454 743.033 152.82 747.308 147.794C751.642 142.71 757.882 140.167 766.028 140.167C770.419 140.167 774.666 141.236 778.768 143.374C780.328 144.241 781.599 144.674 782.581 144.674C783.621 144.674 784.459 144.472 785.094 144.067C785.73 143.605 786.741 142.363 788.128 140.341H791.074Z" fill="black"/>
<path fill-rule="evenodd" clip-rule="evenodd" d="M497.033 240.815L389.933 125.953L393.607 122.528L500.707 237.389L497.033 240.815Z" fill="black"/>
</svg>
