<svg width="936" height="839" viewBox="0 0 936 839" fill="none" xmlns="http://www.w3.org/2000/svg">
<path d="M130.417 703.144C132.457 702.644 133.739 700.527 133.239 698.488L127.067 673.334L131.229 672.673C133.609 672.089 135.565 671.249 136.507 669.216C137.706 666.759 137.886 664.553 137.302 662.173L136.134 657.415L135.813 653.169C134.612 636.525 135.534 619.722 136.796 602.834C138.353 576.865 141.012 550.986 143.755 525.446L144.101 523.92L177.785 664.132C178.286 666.172 180.402 667.454 182.442 666.954C184.481 666.454 185.424 664.42 184.923 662.381L146.043 506.866L146.568 503.133C148.101 502.036 149.634 500.939 151.25 500.182C157.465 496.135 163.846 492.767 170.227 489.399L175.392 511.917C175.893 513.957 177.926 514.899 179.965 514.399C182.005 513.899 182.947 511.865 182.447 509.826L176.608 486.032L188.345 480.989L192.597 479.225L199.652 477.134L222.666 572.394C223.083 574.093 225.2 575.376 227.239 574.876C229.279 574.375 230.561 572.259 230.061 570.219L206.534 475.806C207.214 475.639 208.233 475.389 208.997 475.562L213.666 475.497L215.192 475.843C218.329 476.876 220.618 477.395 223.928 477.664C225.031 477.754 226.474 477.76 227.834 477.426C230.553 476.759 233.362 474.989 232.951 471.846L232.54 468.703C230.288 459.526 220.218 452.266 211.829 448.919C207.763 447.034 203.183 445.995 198.687 445.297L173.825 345.445L175.807 338.832L176.493 337.222C184.58 331.994 192.75 327.106 201.004 322.558L272.216 617.176C272.716 619.216 274.833 620.498 276.872 619.998C278.912 619.497 280.194 617.381 279.694 615.341L206.109 319.864C206.706 319.357 207.642 318.767 208.322 318.6C213.684 315.483 219.129 312.705 224.74 310.607L220.745 311.948L225.677 310.017L240.921 376.551C241.762 378.507 243.455 379.533 245.495 379.033C247.534 378.532 248.817 376.416 248.316 374.376L231.205 307.58L252.895 297.572L279.066 408.635C279.567 410.675 281.683 411.957 283.723 411.457C285.762 410.957 287.045 408.84 286.544 406.8L258.084 295.218C258.423 295.135 258.763 295.051 259.02 294.628C260.367 297.181 262.31 299.226 264.337 301.612C268.558 307.063 276.524 310.154 283.662 308.402L285.702 307.902C295.309 304.463 298.919 294.208 296.584 284.69L296.417 284.01C292.247 267.014 276.494 258.627 260.543 256.774C253.077 255.723 245.945 256.032 239.147 257.7L236.428 258.367C227.25 260.619 218.149 264.654 209.729 268.522C172.3 286.356 135.109 308.095 104.935 336.401C95.2196 345.272 85.3306 354.906 78.3214 365.996C75.2433 371.076 72.6719 376.752 71.627 382.775C70.8449 386.931 70.9992 390.497 71.9167 394.236L74.1812 400.527C77.1257 406.652 85.0854 411.186 91.5312 412.487L105.448 472.14L102.294 494.536C94.2008 501.207 86.614 508.475 79.3672 515.659C78.1744 516.672 78.3349 518.795 78.752 520.494C79.0856 521.854 79.4192 523.214 79.926 523.81C81.1896 526.023 83.1332 528.069 84.9933 529.774L94.1681 567.165L91.9132 597.63C91.4459 607.475 91.3185 617.237 91.531 626.915C91.4161 633.791 91.4681 641.346 93.2197 648.484C93.7201 650.524 94.9838 652.736 95.9076 655.032C97.8385 659.964 104.099 664.915 108.415 667.82C111.379 669.616 115.445 671.501 119.345 672.706L126.101 700.239C126.601 702.279 128.378 703.645 130.417 703.144ZM95.8597 549.091L91.7665 533.879C93.3763 534.565 94.9862 535.251 97.1925 535.43L95.8597 549.091ZM108.243 454.155L97.6435 412.429C102.742 411.178 102.434 404.046 102.87 401.416C107.41 392.014 117.215 382.039 125.225 375.029C120.654 391.647 116.929 408.778 113.461 425.486L108.243 454.155ZM152.452 458.083L156.304 431.19L161.726 453.285L152.452 458.083ZM192.068 444.758C188.162 444.996 184 445.657 180.261 446.575C175.842 447.659 171.846 449 167.594 450.764L158.574 416.939C161.619 399.975 164.664 383.01 168.472 366.219C169.164 363.166 169.773 359.773 170.806 356.637L192.068 444.758ZM348.254 716.003C350.293 715.502 351.576 713.386 351.075 711.346L319.528 587.187C323.568 575.745 327.184 564.046 330.037 552.174C330.383 550.648 330.73 549.121 331.499 547.851L344.915 605.464C345.416 607.503 347.532 608.786 349.572 608.285C351.611 607.785 352.894 605.668 352.393 603.629L335.949 539.551C342.087 533.721 348.814 528.827 355.625 524.272L367.379 573.644C367.88 575.683 369.913 576.626 371.952 576.125C373.992 575.625 374.935 573.592 374.434 571.552L361.583 520.648C365.668 518.204 370.177 516.017 374.346 513.913L378.258 512.232L386.265 544.864C386.252 547.75 386.58 550.553 386.824 553.016C387.145 557.261 387.806 561.424 388.723 565.163C389.891 569.922 391.738 574.514 394.266 578.939L419.032 681.337C419.532 683.377 421.649 684.659 423.688 684.159C425.728 683.658 427.01 681.542 426.51 679.502L404.317 590.528C407.87 593.259 412.02 595.485 416.433 595.843C418.299 596.106 420.082 596.029 421.782 595.612C425.181 594.778 428.33 592.924 430.126 589.961C433.287 585.221 432.889 579.192 431.638 574.093C429.649 563.049 428.596 551.415 428.306 539.954L446.226 615.922C446.727 617.961 448.843 619.244 450.883 618.744C452.499 617.987 453.948 616.55 453.531 614.85L427.495 511.682C427.244 491.563 427.332 471.36 427.676 450.733L432.514 470.449C433.014 472.488 435.131 473.771 437.17 473.27C438.87 472.853 440.236 471.076 439.819 469.377L428.726 424.168C429.224 407.108 429.806 390.387 430.985 373.16L477.764 566.739C478.265 568.779 480.381 570.061 482.421 569.561C484.46 569.06 485.743 566.944 485.242 564.904L432.683 353.643C433.592 339.725 435.182 325.641 436.771 311.556L451.939 376.307C452.439 378.347 454.556 379.629 456.595 379.129C458.635 378.628 459.917 376.512 459.417 374.472L438.97 294.079C441.072 279.148 443.514 264.133 447.143 249.548L446.905 245.642C446.321 243.263 445.058 241.05 443.454 238.921C440.67 234.919 436.867 231.168 432.633 228.602C428.824 226.294 425.18 224.665 420.941 223.543C418.568 222.684 413.732 222.069 409.993 222.986L407.1 224.417C390.484 238.945 378.601 258.078 368.585 277.474C355.74 302.969 346.116 329.837 337.254 356.878C328.047 385.445 319.603 414.185 313.025 443.188C307.056 468.799 301.934 494.922 297.491 520.878C294.626 535.636 291.42 550.478 289.658 565.326C288.69 573.131 286.947 583.65 289.115 592.488C290.366 597.586 292.977 602.351 297.634 605.173C299.834 606.795 302.463 607.231 305.009 607.327L307.132 607.167C311.211 606.166 314.033 601.509 315.835 597.103L343.597 713.181C344.097 715.221 346.214 716.503 348.254 716.003ZM345.22 496.553L347.291 488.838L348.625 494.276L345.22 496.553ZM353.903 490.819L350.567 477.222L360.999 440.426L371.001 482.659C365.05 484.84 359.605 487.618 353.903 490.819ZM376.87 480.138L363.935 428.894C370.571 406.003 378.573 381.336 386.992 358.368C384.36 397.574 382.914 437.211 383.501 477.79L376.87 480.138ZM634.212 654.124C636.251 653.624 637.194 651.591 636.694 649.551L597.229 491.657L621.378 501.948L644.392 597.208C644.809 598.908 646.586 600.274 648.285 599.857L648.625 599.774C650.665 599.273 652.03 597.496 651.53 595.457L629.171 505.802C638.067 509.746 646.706 514.113 655.006 518.563C656.192 518.993 657.379 519.423 658.309 520.275L664.915 523.7C674.062 528.663 683.625 535.326 694.162 532.74L694.842 532.574C699.261 531.489 702.416 528.192 701.249 523.434L701.082 522.754C697.9 512.723 690.203 506.323 681.057 501.36L662.764 491.433C652.854 486.296 643.028 481.5 633.202 476.703L620.663 471.131L605.56 411.049C611.62 403.436 616.917 395.649 622.554 387.779L628.964 416.839C629.464 418.878 631.581 420.161 633.62 419.66C635.66 419.16 636.942 417.043 636.442 415.004L627.255 380.499L638.535 363.316L659.964 452.117C660.465 454.157 662.581 455.439 664.621 454.939C666.66 454.439 667.603 452.405 667.102 450.366L643.408 355.273C654.951 336.223 665.308 316.744 674.817 296.752L748.281 600.547C748.781 602.587 750.898 603.869 752.937 603.369C754.977 602.868 755.919 600.835 755.419 598.796L678.504 288.279L688.367 265.317C691.028 258.538 693.349 251.842 695.587 244.806L716.509 333.011C717.01 335.05 719.126 336.333 721.166 335.832C723.205 335.332 724.488 333.215 723.987 331.176L699.03 233.87L700.062 230.734C703.076 220.985 709.937 204.886 707.101 193.329C706.517 190.949 705.253 188.737 703.65 186.607C701.033 183.285 697.479 180.553 693.753 178.585C689.686 176.699 682.907 174.038 678.148 175.206C676.788 175.54 675.769 175.79 674.916 176.72C671.934 179.254 670.805 184.936 669.433 188.156C666.945 194.172 664.034 199.932 661.629 206.288C658.026 215.101 653.825 224.42 649.882 233.316C642.758 251.282 634.704 268.394 626.226 285.25L606.786 207.492L609.197 199.693C609.37 198.93 609.376 197.487 609.126 196.467C608.375 193.408 606.098 190.002 604.578 188.213C601.621 184.974 597.984 181.903 593.918 180.017C590.191 178.049 585.785 176.247 581.796 176.145L579.333 176.389C566.756 179.475 560.697 206.188 557.344 216.02C552.702 229.413 548.483 243.061 544.604 256.626C537.872 282.064 531.646 308.097 526.781 333.797C516.895 381.631 510.402 430.074 506.879 478.869C506.149 490.581 505.419 502.292 505.029 513.92L504.786 530.557C504.684 534.547 505.262 538.369 506.262 542.448C509.015 553.665 516.013 564.561 527.795 568.518L529.405 569.204L536.232 599.963C536.733 602.003 538.766 602.945 540.805 602.445C542.845 601.944 544.127 599.828 543.627 597.788L536.197 568.979L537.557 568.645C539.936 568.061 542.149 566.798 544.278 565.194C548.37 561.307 548.729 556.894 548.921 551.802C548.773 546.793 548.708 542.124 548.983 537.371C549.367 527.186 549.668 516.661 550.392 506.393C550.763 499.094 551.134 491.795 551.846 484.413L559.346 516.449C559.846 518.488 561.963 519.771 564.003 519.27C566.042 518.77 566.985 516.737 566.484 514.697L556.636 476.03L558.162 476.376L559.772 477.063L560.112 476.979L563.755 478.608C572.824 481.788 581.554 485.052 590.366 488.656L629.555 651.303C630.056 653.342 632.172 654.625 634.212 654.124ZM564.677 383.961C568.421 362.501 572.588 341.297 577.178 320.35L585.602 354.681C579.022 364.585 572.02 374.231 564.677 383.961ZM582.449 454.921L572.873 451.144L579.613 443.363L582.449 454.921ZM612.953 467.617L588.805 457.325L583.794 438.373C589.681 431.523 595.145 424.416 600.609 417.309L612.953 467.617ZM590.046 347.825L580.204 307.715C586.949 279.391 596.085 247.598 603.766 218.684L621.859 293.889C611.933 312.182 601.243 330.302 590.046 347.825ZM892.511 547.498C894.551 546.997 895.833 544.881 895.333 542.841L868.63 436.954C874.851 431.463 881.411 425.889 888.139 420.995C892.994 417.281 898.272 413.824 903.293 410.79L918.211 474.521C918.711 476.56 920.828 477.843 922.867 477.342C924.907 476.842 926.189 474.725 925.689 472.686L908.995 407.589L911.971 406.498L920.129 404.496C923.868 403.579 926.766 400.705 927.292 396.972C927.298 395.529 927.048 394.51 926.715 393.15C926.131 390.771 925.207 388.474 923.603 386.345L922 384.216C921.916 383.876 920.819 382.343 917.689 379.868L917.183 379.272C911.179 373.897 903.469 370.383 895.831 370.096C895.831 370.096 896.171 370.012 896.254 370.352C894.388 370.089 892.605 370.166 890.482 370.327L885.3 371.238C880.284 372.829 875.012 374.844 870.247 377.454C865.482 380.065 860.461 383.099 856.202 386.306L837.846 312.968C842.105 309.761 846.786 306.81 851.551 304.199C852.488 303.609 853.084 303.102 854.104 302.852L864.684 348.908C865.185 350.947 867.301 352.23 869.341 351.729C871.38 351.229 872.663 349.112 872.162 347.073L859.889 299.991C864.737 297.72 869.669 295.789 875.025 294.115C877.321 293.191 879.956 292.184 881.322 290.407L892.749 336.976C893.25 339.015 895.026 340.381 897.066 339.881C899.105 339.38 900.388 337.264 899.887 335.224L854.662 155.319L866.058 150.36C870.31 148.596 874.223 146.915 878.558 145.491L955.274 462.543C955.775 464.583 957.808 465.525 959.847 465.025C961.887 464.524 963.253 462.748 962.752 460.708L883.747 143.137C886.126 142.553 888.082 141.712 890.378 140.789C899.985 137.35 909.593 133.911 919.79 131.409L924.209 130.325L937.285 188.021C938.126 189.977 939.902 191.343 941.942 190.843C943.981 190.342 945.264 188.226 944.763 186.186L931.072 133.326C933.593 139.194 939.276 140.322 945.054 138.905C948.453 138.07 951.602 136.217 953.905 133.85C957.06 130.553 957.759 126.057 956.758 121.978C955.84 118.239 953.48 114.493 950.946 111.511C948.246 107.849 944.859 105.797 941.306 103.065L946.129 106.567L940.376 102.212L934.109 98.7047C927.246 95.7037 919.697 94.3126 912.142 94.3646C906.03 94.4228 900.508 95.4175 894.729 96.8354C887.931 98.5035 881.299 100.852 874.668 103.2C847.289 113.521 821.424 127.076 795.898 140.547C786.965 145.262 778.454 150.233 769.354 154.268C766.121 155.782 765.679 159.855 766.43 162.914C767.264 166.313 770.048 170.315 772.838 172.874L790.013 244.34C786.873 263.85 784.918 283.79 782.88 303.391C780.221 329.27 777.138 354.893 774.056 380.516C771.415 402.066 767.671 423.526 765.794 445.249C764.987 455.178 764.686 465.703 766.085 475.811L766.753 478.53C770.506 493.826 783.533 504.324 798.285 508.633C799.811 508.979 801.338 509.325 803.121 509.248L808.536 532.786C809.036 534.825 811.153 536.108 813.193 535.607C815.232 535.107 816.175 533.074 815.674 531.034L809.829 508.683L810.509 508.516C813.145 507.509 814.511 505.732 815.37 503.359L815.537 504.039C818.807 493.867 825.893 484.56 832.127 476.183L842.965 463.073L852.723 502.843C853.224 504.882 855.34 506.165 857.38 505.664C859.08 505.247 860.446 503.471 860.028 501.771L848.935 456.562L863.089 442.278L887.855 544.676C888.355 546.716 890.472 547.998 892.511 547.498ZM814.876 422.034C817.247 403.793 818.759 387.926 820.701 370.872L829.793 407.923C824.765 412.4 819.82 417.217 814.876 422.034ZM835.673 402.515L823.073 352.631L826.258 323.019C828.22 320.736 830.606 318.709 832.991 316.682L850.668 390.187L835.673 402.515ZM792.623 230.005L779.778 177.658C784.858 180.736 791.13 182.8 797.249 181.299L805.753 177.771L805.407 179.297C801.105 192.606 797.649 206.428 794.533 220.166L792.623 230.005ZM878.743 278.427C876.46 276.464 873.92 274.925 871.463 273.726C865.363 270.898 858.321 270.104 851.523 271.772L849.143 272.356C842.429 274.364 836.387 277.648 830.853 281.529C832.192 266.424 833.954 251.577 835.717 236.729C838.716 210.766 842.312 184.297 849.807 159.033L878.743 278.427Z" fill="#D51515"/>
<path d="M130.417 703.144C132.457 702.644 133.739 700.527 133.239 698.488L127.067 673.334L131.229 672.673C133.609 672.089 135.565 671.249 136.507 669.216C137.706 666.759 137.886 664.553 137.302 662.173L136.134 657.415L135.813 653.169C134.612 636.525 135.534 619.722 136.796 602.834C138.353 576.865 141.012 550.986 143.755 525.446L144.101 523.92L177.785 664.132C178.286 666.172 180.402 667.454 182.442 666.954C184.481 666.454 185.424 664.42 184.923 662.381L146.043 506.866L146.568 503.133C148.101 502.036 149.634 500.939 151.25 500.182C157.465 496.135 163.846 492.767 170.227 489.399L175.392 511.917C175.893 513.957 177.926 514.899 179.965 514.399C182.005 513.899 182.948 511.865 182.447 509.826L176.609 486.032L188.345 480.989L192.597 479.225L199.652 477.134L222.666 572.394C223.083 574.093 225.2 575.376 227.239 574.876C229.279 574.375 230.561 572.259 230.061 570.219L206.534 475.806C207.214 475.639 208.233 475.389 208.997 475.562L213.666 475.497L215.192 475.843C218.329 476.876 220.618 477.395 223.928 477.664C225.031 477.754 226.474 477.76 227.834 477.426C230.553 476.759 233.362 474.989 232.951 471.846L232.541 468.703C230.289 459.526 220.218 452.266 211.829 448.919C207.763 447.034 203.183 445.995 198.687 445.297L173.825 345.445L175.807 338.832L176.493 337.222C184.58 331.994 192.75 327.106 201.004 322.558L272.216 617.176C272.716 619.216 274.833 620.498 276.872 619.998C278.912 619.497 280.194 617.381 279.694 615.341L206.109 319.864C206.706 319.357 207.642 318.767 208.322 318.6C213.684 315.483 219.129 312.705 224.74 310.607L220.745 311.948L225.677 310.017L240.921 376.551C241.762 378.507 243.455 379.533 245.495 379.033C247.534 378.533 248.817 376.416 248.316 374.376L231.205 307.58L252.895 297.572L279.066 408.635C279.567 410.675 281.683 411.957 283.723 411.457C285.762 410.957 287.045 408.84 286.544 406.8L258.084 295.218C258.424 295.135 258.763 295.051 259.02 294.628C260.367 297.181 262.311 299.226 264.337 301.612C268.558 307.063 276.524 310.154 283.662 308.402L285.702 307.902C295.309 304.463 298.919 294.208 296.584 284.69L296.417 284.01C292.247 267.014 276.494 258.627 260.543 256.775C253.077 255.723 245.945 256.032 239.147 257.7L236.428 258.367C227.25 260.619 218.149 264.654 209.729 268.522C172.3 286.356 135.109 308.095 104.936 336.401C95.2196 345.272 85.3306 354.906 78.3215 365.996C75.2434 371.076 72.672 376.752 71.6271 382.775C70.845 386.931 70.9992 390.497 71.9167 394.236L74.1813 400.527C77.1257 406.652 85.0855 411.186 91.5313 412.487L105.448 472.14L102.294 494.536C94.2008 501.207 86.6141 508.475 79.3673 515.659C78.1744 516.672 78.335 518.795 78.752 520.494C79.0856 521.854 79.4193 523.214 79.926 523.81C81.1897 526.023 83.1332 528.069 84.9933 529.774L94.1682 567.165L91.9132 597.63C91.4459 607.475 91.3185 617.237 91.531 626.915C91.4162 633.791 91.4682 641.346 93.2197 648.484C93.7202 650.524 94.9838 652.736 95.9076 655.032C97.8386 659.964 104.099 664.915 108.415 667.82C111.379 669.616 115.445 671.501 119.345 672.706L126.101 700.239C126.601 702.279 128.378 703.645 130.417 703.144ZM95.8598 549.091L91.7665 533.879C93.3764 534.565 94.9863 535.251 97.1926 535.43L95.8598 549.091ZM108.243 454.155L97.6435 412.429C102.742 411.178 102.434 404.046 102.87 401.416C107.41 392.014 117.215 382.039 125.225 375.029C120.654 391.647 116.929 408.778 113.461 425.486L108.243 454.155ZM152.452 458.083L156.304 431.19L161.726 453.285L152.452 458.083ZM192.068 444.758C188.162 444.996 184 445.657 180.261 446.575C175.842 447.659 171.846 449 167.594 450.764L158.574 416.939C161.619 399.975 164.664 383.01 168.472 366.219C169.164 363.166 169.773 359.773 170.806 356.637L192.068 444.758Z" fill="#D51515"/>
<path d="M348.254 716.003C350.293 715.502 351.576 713.386 351.075 711.346L319.528 587.187C323.568 575.745 327.184 564.046 330.037 552.174C330.383 550.648 330.73 549.121 331.499 547.851L344.915 605.464C345.416 607.503 347.532 608.786 349.572 608.285C351.611 607.785 352.894 605.668 352.393 603.629L335.949 539.551C342.087 533.721 348.814 528.827 355.625 524.272L367.379 573.644C367.88 575.683 369.913 576.626 371.953 576.125C373.992 575.625 374.935 573.592 374.434 571.552L361.583 520.648C365.668 518.204 370.177 516.017 374.346 513.913L378.258 512.232L386.265 544.864C386.252 547.75 386.58 550.553 386.824 553.016C387.145 557.261 387.806 561.424 388.723 565.163C389.891 569.922 391.739 574.514 394.266 578.939L419.032 681.337C419.532 683.377 421.649 684.659 423.688 684.159C425.728 683.658 427.01 681.542 426.51 679.502L404.317 590.528C407.871 593.259 412.02 595.485 416.433 595.843C418.299 596.106 420.082 596.029 421.782 595.612C425.181 594.778 428.33 592.924 430.126 589.961C433.287 585.221 432.889 579.192 431.638 574.093C429.649 563.049 428.596 551.415 428.306 539.954L446.226 615.922C446.727 617.961 448.843 619.244 450.883 618.744C452.499 617.987 453.948 616.55 453.531 614.85L427.496 511.682C427.244 491.563 427.332 471.36 427.676 450.733L432.514 470.449C433.014 472.488 435.131 473.771 437.17 473.27C438.87 472.853 440.236 471.076 439.819 469.377L428.726 424.168C429.224 407.108 429.807 390.387 430.985 373.16L477.764 566.739C478.265 568.779 480.381 570.061 482.421 569.561C484.46 569.06 485.743 566.944 485.242 564.904L432.683 353.643C433.593 339.725 435.182 325.641 436.771 311.556L451.939 376.307C452.439 378.347 454.556 379.629 456.595 379.129C458.635 378.628 459.917 376.512 459.417 374.472L438.97 294.079C441.072 279.148 443.514 264.133 447.143 249.548L446.905 245.642C446.322 243.263 445.058 241.05 443.454 238.921C440.67 234.919 436.867 231.168 432.633 228.602C428.824 226.294 425.18 224.665 420.941 223.543C418.568 222.684 413.732 222.069 409.993 222.986L407.1 224.417C390.484 238.945 378.601 258.078 368.585 277.474C355.74 302.969 346.116 329.837 337.255 356.878C328.047 385.445 319.603 414.185 313.025 443.188C307.056 468.799 301.934 494.922 297.492 520.878C294.626 535.636 291.42 550.478 289.658 565.326C288.69 573.131 286.947 583.65 289.115 592.488C290.366 597.586 292.977 602.351 297.634 605.173C299.834 606.795 302.463 607.231 305.01 607.327L307.132 607.167C311.211 606.166 314.033 601.509 315.835 597.103L343.597 713.181C344.097 715.221 346.214 716.503 348.254 716.003ZM345.22 496.554L347.291 488.838L348.625 494.276L345.22 496.554ZM353.903 490.819L350.567 477.222L360.999 440.426L371.001 482.659C365.05 484.84 359.605 487.618 353.903 490.819ZM376.87 480.138L363.935 428.894C370.571 406.003 378.573 381.336 386.993 358.368C384.36 397.574 382.914 437.211 383.501 477.79L376.87 480.138Z" fill="#D51515"/>
<path d="M634.212 654.124C636.252 653.624 637.194 651.591 636.694 649.551L597.229 491.657L621.378 501.948L644.392 597.208C644.809 598.908 646.586 600.274 648.285 599.857L648.625 599.774C650.665 599.273 652.031 597.496 651.53 595.457L629.171 505.802C638.067 509.746 646.706 514.113 655.006 518.563C656.192 518.993 657.379 519.423 658.309 520.275L664.916 523.7C674.062 528.663 683.625 535.326 694.163 532.74L694.842 532.574C699.261 531.489 702.417 528.192 701.249 523.434L701.082 522.754C697.9 512.723 690.203 506.323 681.057 501.36L662.764 491.433C652.855 486.296 643.028 481.5 633.202 476.703L620.663 471.131L605.56 411.049C611.62 403.436 616.917 395.649 622.554 387.779L628.964 416.839C629.464 418.878 631.581 420.161 633.62 419.66C635.66 419.16 636.942 417.043 636.442 415.004L627.255 380.499L638.535 363.316L659.964 452.117C660.465 454.157 662.581 455.439 664.621 454.939C666.66 454.439 667.603 452.405 667.102 450.366L643.408 355.273C654.951 336.223 665.308 316.744 674.817 296.752L748.281 600.547C748.781 602.587 750.898 603.869 752.937 603.369C754.977 602.868 755.919 600.835 755.419 598.796L678.504 288.279L688.367 265.317C691.028 258.538 693.349 251.842 695.587 244.806L716.509 333.011C717.01 335.05 719.126 336.333 721.166 335.832C723.205 335.332 724.488 333.215 723.988 331.176L699.03 233.87L700.062 230.734C703.076 220.985 709.937 204.886 707.101 193.329C706.517 190.949 705.253 188.737 703.65 186.607C701.033 183.285 697.479 180.553 693.753 178.585C689.686 176.699 682.907 174.038 678.148 175.206C676.788 175.54 675.769 175.79 674.916 176.72C671.934 179.254 670.805 184.936 669.433 188.156C666.945 194.172 664.034 199.932 661.629 206.288C658.026 215.101 653.825 224.42 649.882 233.316C642.758 251.282 634.704 268.394 626.226 285.25L606.786 207.492L609.197 199.693C609.37 198.93 609.376 197.487 609.126 196.467C608.376 193.408 606.098 190.002 604.578 188.213C601.621 184.974 597.984 181.903 593.918 180.017C590.191 178.049 585.785 176.247 581.796 176.145L579.333 176.389C566.756 179.475 560.698 206.188 557.344 216.02C552.702 229.413 548.483 243.061 544.604 256.626C537.872 282.064 531.646 308.097 526.781 333.797C516.895 381.631 510.402 430.074 506.879 478.869C506.149 490.581 505.419 502.292 505.029 513.92L504.786 530.557C504.684 534.547 505.262 538.369 506.262 542.448C509.015 553.665 516.013 564.562 527.795 568.518L529.405 569.204L536.232 599.963C536.733 602.003 538.766 602.945 540.805 602.445C542.845 601.944 544.127 599.828 543.627 597.788L536.197 568.979L537.557 568.645C539.936 568.061 542.149 566.798 544.278 565.194C548.37 561.307 548.729 556.894 548.921 551.802C548.773 546.793 548.708 542.124 548.983 537.371C549.367 527.186 549.668 516.661 550.392 506.393C550.763 499.094 551.134 491.795 551.846 484.413L559.346 516.449C559.846 518.488 561.963 519.771 564.003 519.27C566.042 518.77 566.985 516.737 566.484 514.697L556.636 476.03L558.162 476.376L559.772 477.063L560.112 476.979L563.755 478.608C572.824 481.788 581.554 485.052 590.366 488.656L629.555 651.303C630.056 653.342 632.173 654.625 634.212 654.124ZM564.677 383.961C568.421 362.501 572.588 341.297 577.178 320.35L585.602 354.681C579.023 364.585 572.02 374.231 564.677 383.961ZM582.449 454.921L572.873 451.144L579.613 443.363L582.449 454.921ZM612.953 467.617L588.805 457.325L583.794 438.373C589.682 431.523 595.145 424.416 600.609 417.309L612.953 467.617ZM590.046 347.825L580.204 307.715C586.949 279.391 596.085 247.598 603.766 218.684L621.86 293.889C611.933 312.182 601.243 330.302 590.046 347.825Z" fill="#D51515"/>
<path d="M892.511 547.498C894.551 546.997 895.833 544.881 895.333 542.841L868.63 436.954C874.851 431.463 881.411 425.889 888.139 420.995C892.994 417.281 898.272 413.824 903.293 410.79L918.211 474.521C918.711 476.56 920.828 477.843 922.867 477.342C924.907 476.842 926.189 474.725 925.689 472.686L908.995 407.589L911.971 406.498L920.129 404.496C923.868 403.579 926.767 400.705 927.292 396.972C927.298 395.529 927.048 394.51 926.715 393.15C926.131 390.771 925.207 388.475 923.603 386.345L922 384.216C921.916 383.876 920.819 382.343 917.689 379.868L917.183 379.272C911.179 373.898 903.469 370.384 895.831 370.096C895.831 370.096 896.171 370.012 896.254 370.352C894.388 370.089 892.605 370.166 890.482 370.327L885.3 371.238C880.284 372.829 875.012 374.844 870.247 377.454C865.482 380.065 860.461 383.099 856.202 386.306L837.846 312.968C842.105 309.761 846.786 306.81 851.551 304.199C852.488 303.609 853.084 303.102 854.104 302.852L864.684 348.908C865.185 350.947 867.301 352.23 869.341 351.729C871.38 351.229 872.663 349.112 872.162 347.073L859.889 299.991C864.737 297.72 869.669 295.789 875.025 294.115C877.321 293.191 879.956 292.184 881.322 290.407L892.749 336.976C893.25 339.015 895.026 340.381 897.066 339.881C899.105 339.38 900.388 337.264 899.888 335.224L854.662 155.319L866.058 150.36C870.311 148.596 874.223 146.915 878.558 145.491L955.274 462.543C955.775 464.583 957.808 465.525 959.847 465.025C961.887 464.524 963.253 462.748 962.752 460.708L883.747 143.137C886.126 142.553 888.082 141.712 890.378 140.789C899.985 137.35 909.593 133.911 919.79 131.409L924.209 130.325L937.285 188.021C938.126 189.977 939.902 191.343 941.942 190.843C943.981 190.342 945.264 188.226 944.764 186.186L931.072 133.326C933.593 139.194 939.276 140.322 945.054 138.905C948.454 138.07 951.603 136.217 953.905 133.85C957.06 130.553 957.759 126.057 956.758 121.978C955.84 118.239 953.48 114.493 950.946 111.511C948.246 107.849 944.859 105.797 941.306 103.065L946.129 106.567L940.376 102.212L934.109 98.7047C927.246 95.7037 919.697 94.3126 912.142 94.3646C906.03 94.4229 900.508 95.4175 894.729 96.8354C887.931 98.5035 881.299 100.852 874.668 103.2C847.289 113.522 821.424 127.076 795.899 140.547C786.965 145.262 778.454 150.233 769.354 154.268C766.121 155.782 765.679 159.855 766.43 162.914C767.264 166.313 770.048 170.315 772.838 172.874L790.014 244.34C786.873 263.85 784.918 283.79 782.88 303.391C780.221 329.27 777.138 354.893 774.056 380.516C771.415 402.066 767.671 423.526 765.794 445.249C764.987 455.178 764.686 465.703 766.085 475.811L766.753 478.53C770.506 493.826 783.533 504.324 798.285 508.633C799.811 508.979 801.338 509.325 803.121 509.248L808.536 532.786C809.037 534.825 811.153 536.108 813.193 535.607C815.232 535.107 816.175 533.074 815.674 531.034L809.829 508.683L810.509 508.516C813.145 507.509 814.511 505.732 815.37 503.359L815.537 504.039C818.807 493.867 825.894 484.56 832.127 476.183L842.965 463.073L852.724 502.843C853.224 504.882 855.341 506.165 857.38 505.664C859.08 505.247 860.446 503.471 860.029 501.771L848.935 456.562L863.089 442.278L887.855 544.676C888.355 546.716 890.472 547.998 892.511 547.498ZM814.876 422.034C817.247 403.793 818.759 387.926 820.701 370.872L829.793 407.923C824.765 412.4 819.82 417.217 814.876 422.034ZM835.674 402.516L823.073 352.631L826.258 323.019C828.22 320.736 830.606 318.709 832.991 316.682L850.668 390.187L835.674 402.516ZM792.623 230.005L779.778 177.658C784.858 180.736 791.131 182.8 797.249 181.299L805.753 177.771L805.407 179.297C801.105 192.606 797.649 206.428 794.533 220.166L792.623 230.005ZM878.743 278.427C876.46 276.464 873.92 274.925 871.463 273.726C865.364 270.898 858.321 270.104 851.523 271.772L849.144 272.356C842.429 274.364 836.387 277.648 830.853 281.529C832.192 266.424 833.954 251.577 835.717 236.729C838.716 210.766 842.312 184.297 849.807 159.033L878.743 278.427Z" fill="#D51515"/>
</svg>
